<svg width="225" height="225" viewBox="0 0 225 225" fill="none" xmlns="http://www.w3.org/2000/svg">
<path fill-rule="evenodd" clip-rule="evenodd" d="M50.625 177.188V151.875H25.3125V202.5H75.9375V177.188H50.625ZM151.875 202.5H202.5V151.875H177.188V177.188H151.875V202.5ZM202.5 75.9375V25.3125H151.875V50.625H177.188V75.9375H202.5ZM75.9375 25.3125H25.3125V75.9375H50.625V50.625H75.9375V25.3125Z" fill="white"/>
<path d="M135.928 138.32H162.861V155.094H113.484L135.928 138.32ZM69.1875 111.742C69.1875 105.757 70.3294 100.087 72.6131 94.7319C74.8969 89.3769 78.0469 84.6519 82.0631 80.5569C86.1581 76.3831 90.8831 73.115 96.2381 70.7525C101.593 68.39 107.342 67.2087 113.484 67.2087C119.548 67.2087 125.258 68.39 130.613 70.7525C135.968 73.115 140.693 76.3831 144.788 80.5569C148.961 84.6519 152.19 89.3769 154.474 94.7319C156.836 100.087 158.018 105.757 158.018 111.742C158.018 117.884 156.836 123.633 154.474 128.988C152.19 134.343 148.961 139.068 144.788 143.163C140.693 147.179 135.968 150.329 130.613 152.613C125.258 154.897 119.548 156.039 113.484 156.039C107.342 156.039 101.593 154.897 96.2381 152.613C90.8831 150.329 86.1581 147.179 82.0631 143.163C78.0469 139.068 74.8969 134.343 72.6131 128.988C70.3294 123.633 69.1875 117.884 69.1875 111.742ZM86.9063 111.742C86.9063 115.522 87.5756 119.105 88.9144 122.491C90.3319 125.799 92.2613 128.752 94.7025 131.351C97.2225 133.871 100.097 135.839 103.326 137.257C106.633 138.674 110.216 139.383 114.075 139.383C117.776 139.383 121.202 138.674 124.352 137.257C127.581 135.839 130.376 133.871 132.739 131.351C135.101 128.831 136.952 125.917 138.291 122.609C139.629 119.223 140.299 115.601 140.299 111.742C140.299 107.962 139.59 104.418 138.173 101.111C136.834 97.7244 134.944 94.7712 132.503 92.2512C130.14 89.7312 127.344 87.7625 124.116 86.345C120.887 84.9275 117.383 84.2187 113.603 84.2187C109.823 84.2187 106.318 84.9275 103.089 86.345C99.8606 87.7625 97.0256 89.7312 94.5844 92.2512C92.1431 94.7712 90.2531 97.7244 88.9144 101.111C87.5756 104.418 86.9063 107.962 86.9063 111.742Z" fill="white"/>
</svg>
